<svg width="100" height="70" viewBox="0 -10 100 70" xmlns="http://www.w3.org/2000/svg">
  <!-- M logo with thicker stroke -->
  <g fill="#B8860b" stroke="#444" stroke-width="3">
    <polygon 
      points="10,59 10,-1 30,29 50,-1 70,29 90,-1 90,59 70,59 70,29 50,59 30,29 30,59" 
    />
  </g>

  <!-- Winch hook: adjusted stroke, size, fill -->
  <g transform="translate(50,3) scale(0.025,-0.025) translate(-725,-1410)" stroke="#444" stroke-width="3" stroke-linejoin="round" stroke-linecap="round" fill="#666">
    <path d="M620 1410 l0 -90 -38 0 c-52 0 -104 -30 -125 -73 -16 -32 -16 -39 -4
      -69 21 -49 47 -67 108 -75 l54 -8 5 -157 c5 -152 6 -158 30 -183 18 -17 44
      -28 82 -35 94 -15 149 -57 174 -133 49 -148 -83 -288 -234 -247 -80 21 -130
      85 -147 190 -19 115 -157 138 -201 32 -18 -44 -5 -129 33 -214 32 -72 117
      -155 198 -194 55 -27 69 -29 170 -29 100 0 115 2 167 28 115 57 203 162 227
      275 22 106 7 219 -41 302 -45 75 -144 154 -231 184 -16 5 -17 17 -15 93 l3 88
      55 8 c63 9 97 35 106 84 13 71 -48 132 -133 133 l-33 0 0 90 0 90 -105 0 -105
      0 0 -90z"
    />
  </g>
</svg>
